<mxfile host="app.diagrams.net" modified="2023-11-27T09:45:34.821Z" agent="Mozilla/5.0 (Windows NT 10.0; Win64; x64) AppleWebKit/537.36 (KHTML, like Gecko) Chrome/116.0.5845.686 YaBrowser/23.9.5.686 Yowser/2.5 Safari/537.36" version="22.1.4" etag="Jf7FkrP89D6PSYJJyzyh" type="github">
  <diagram name="Страница — 1" id="DOrjseD5amWx8yeZzwjQ">
    <mxGraphModel>
      <root>
        <mxCell id="0" />
        <mxCell id="1" parent="0" />
      </root>
    </mxGraphModel>
  </diagram>
</mxfile>
